<?xml version="1.0" encoding="iso-8859-1"?>
<!-- Generator: Adobe Illustrator 19.0.0, SVG Export Plug-In . SVG Version: 6.00 Build 0)  -->
<svg xmlns="http://www.w3.org/2000/svg" xmlns:xlink="http://www.w3.org/1999/xlink" version="1.1" id="Capa_1" x="0px" y="0px" viewBox="0 0 512 512" style="enable-background:new 0 0 512 512;" xml:space="preserve">
<path style="fill:#FFB427;" d="M256,63.003c10.79,0,21.4,0.77,31.789,2.226V38.137h-63.578V65.23  C234.6,63.773,245.21,63.003,256,63.003z"/>
<path style="fill:#FF9D00;" d="M253.622,63.024c0.792-0.008,1.583-0.021,2.378-0.021c10.791,0,21.4,0.77,31.789,2.226V38.137  h-34.167L253.622,63.024L253.622,63.024z"/>
<circle style="fill:#FF4D4A;" cx="256" cy="285" r="227"/>
<path style="fill:#E13F33;" d="M256,58c-5.747,0-11.443,0.218-17.083,0.638C356.305,67.372,448.833,165.379,448.833,285  s-92.528,217.628-209.917,226.362c5.64,0.42,11.336,0.638,17.083,0.638c125.369,0,227-101.631,227-227S381.369,58,256,58z"/>
<circle style="fill:#F7F9F9;" cx="256" cy="285" r="174.5"/>
<path style="fill:#E4E4E4;" d="M256,110.5c-5.434,0-10.806,0.261-16.114,0.748C328.704,119.381,398.272,194.06,398.272,285  s-69.568,165.619-158.386,173.753c5.307,0.486,10.68,0.747,16.114,0.747c96.374,0,174.5-78.126,174.5-174.5S352.374,110.5,256,110.5  z"/>
<g>
	<path style="fill:#0072A2;" d="M307.447,0H204.553c-2.279,0-4.126,1.847-4.126,4.126v33.888c0,2.279,1.847,4.126,4.126,4.126   h102.894c2.279,0,4.126-1.847,4.126-4.126V4.126C311.573,1.847,309.726,0,307.447,0z"/>
	<circle style="fill:#0072A2;" cx="256" cy="285" r="23"/>
</g>
<circle style="fill:#FFB427;" cx="256" cy="285" r="9.216"/>
<path style="fill:#006289;" d="M307.447,0h-30.041v42.139h30.041c2.279,0,4.126-1.847,4.126-4.126V4.126  C311.573,1.847,309.726,0,307.447,0z"/>
<path style="fill:#0072A2;" d="M256,140.396v91.074c29.564,0,53.529,23.966,53.529,53.529h91.075c1.834,0,3.292-1.516,3.251-3.349  c-1.756-79.018-65.488-142.75-144.506-144.506C257.516,137.104,256,138.562,256,140.396z"/>
<path style="fill:#006289;" d="M403.855,281.651c-0.728-32.745-12.106-62.858-30.796-87.03  c15.996,26.361,25.213,57.291,25.213,90.379h2.332C402.438,285,403.896,283.484,403.855,281.651z"/>
<g>
	<path style="fill:#0072A2;" d="M342.337,371.337L342.337,371.337c3.039-3.039,7.966-3.039,11.005,0l12.891,12.892   c3.039,3.039,3.039,7.966,0,11.005l0,0c-3.039,3.039-7.966,3.039-11.005,0l-12.891-12.891   C339.299,379.303,339.299,374.376,342.337,371.337z"/>
	<path style="fill:#0072A2;" d="M145.766,174.766L145.766,174.766c3.039-3.039,7.966-3.039,11.005,0l12.892,12.891   c3.039,3.039,3.039,7.966,0,11.005l0,0c-3.039,3.039-7.966,3.039-11.005,0l-12.891-12.891   C142.727,182.732,142.727,177.805,145.766,174.766z"/>
	<path style="fill:#0072A2;" d="M169.663,371.337L169.663,371.337c3.039,3.039,3.039,7.966,0,11.005l-12.892,12.891   c-3.039,3.039-7.966,3.039-11.005,0l0,0c-3.039-3.039-3.039-7.966,0-11.005l12.891-12.892   C161.697,368.299,166.624,368.299,169.663,371.337z"/>
	<path style="fill:#0072A2;" d="M256,407.1L256,407.1c4.298,0,7.782,3.484,7.782,7.782v18.231c0,4.298-3.484,7.782-7.782,7.782l0,0   c-4.298,0-7.782-3.484-7.782-7.782v-18.231C248.218,410.584,251.702,407.1,256,407.1z"/>
	<path style="fill:#0072A2;" d="M133.9,285L133.9,285c0,4.298-3.484,7.782-7.782,7.782h-18.231c-4.298,0-7.782-3.484-7.782-7.782   l0,0c0-4.298,3.484-7.782,7.782-7.782h18.231C130.416,277.218,133.9,280.702,133.9,285z"/>
</g>
<g>
</g>
<g>
</g>
<g>
</g>
<g>
</g>
<g>
</g>
<g>
</g>
<g>
</g>
<g>
</g>
<g>
</g>
<g>
</g>
<g>
</g>
<g>
</g>
<g>
</g>
<g>
</g>
<g>
</g>
</svg>
