<?xml version="1.0" encoding="iso-8859-1"?>
<!-- Generator: Adobe Illustrator 19.0.0, SVG Export Plug-In . SVG Version: 6.00 Build 0)  -->
<svg xmlns="http://www.w3.org/2000/svg" xmlns:xlink="http://www.w3.org/1999/xlink" version="1.1" id="Capa_1" x="0px" y="0px" viewBox="0 0 512 512" style="enable-background:new 0 0 512 512;" xml:space="preserve">
<polygon style="fill:#FFDE3E;" points="145.057,119.955 145.057,86.59 78.68,86.59 78.68,177.723 "/>
<polygon style="fill:#FCD400;" points="110.431,86.59 110.431,150.09 145.057,119.955 145.057,86.59 "/>
<path style="fill:#FFB427;" d="M253.38,75.774L62.225,242.135V480.87c0,6.312,5.117,11.429,11.429,11.429h364.693  c6.312,0,11.429-5.117,11.429-11.429V242.135L258.62,75.774C257.118,74.467,254.882,74.467,253.38,75.774z"/>
<path style="fill:#FF8100;" d="M253.38,75.774L238.171,89.01c68.538,58.558,177.618,153.107,177.618,153.107V480.87  c0,6.312-5.117,11.429-11.429,11.429h33.986c6.312,0,11.429-5.117,11.429-11.429V242.135L258.62,75.774  C257.118,74.467,254.882,74.467,253.38,75.774z"/>
<g>
	<path style="fill:#D96B37;" d="M154.594,61.055H66.493c-2.338,0-4.234,1.896-4.234,4.234v22.069c0,2.338,1.896,4.234,4.234,4.234   h88.101c2.338,0,4.234-1.896,4.234-4.234V65.289C158.828,62.95,156.932,61.055,154.594,61.055z"/>
	<path style="fill:#D96B37;" d="M308.59,284.934h-95.854c-5.838,0-10.57,4.732-10.57,10.57v196.795H319.16V295.504   C319.16,289.666,314.428,284.934,308.59,284.934z"/>
</g>
<path style="fill:#B14418;" d="M308.59,284.934h-34.879c5.838,0,10.57,4.732,10.57,10.57v196.795h34.879V295.504  C319.16,289.666,314.428,284.934,308.59,284.934z"/>
<path style="fill:#FF4D4A;" d="M4.083,247.119h58.142v0.017L253.38,80.775c1.502-1.307,3.737-1.307,5.239,0l191.156,166.361v-0.017  h58.142c3.768,0,5.517-4.675,2.675-7.148L258.62,20.681c-1.502-1.307-3.738-1.307-5.239,0L1.408,239.971  C-1.434,242.444,0.315,247.119,4.083,247.119z"/>
<path style="fill:#B14418;" d="M154.594,61.055h-30.645v30.537h30.645c2.338,0,4.234-1.896,4.234-4.234V65.289  C158.828,62.95,156.932,61.055,154.594,61.055z"/>
<g>
</g>
<g>
</g>
<g>
</g>
<g>
</g>
<g>
</g>
<g>
</g>
<g>
</g>
<g>
</g>
<g>
</g>
<g>
</g>
<g>
</g>
<g>
</g>
<g>
</g>
<g>
</g>
<g>
</g>
</svg>
