<svg width="29" height="29" viewBox="0 0 29 29" fill="none" xmlns="http://www.w3.org/2000/svg">
<path d="M27.4524 22.2406C28.5115 23.2997 28.5115 25.0227 27.4524 26.0818C27.4509 26.0835 27.4492 26.085 27.4475 26.0867L25.5891 27.922C25.3773 28.131 25.1015 28.2354 24.8258 28.2354C24.5453 28.2354 24.2652 28.1276 24.0526 27.9124C23.6312 27.4855 23.6354 26.7975 24.0623 26.3759L25.1497 25.302H7.71394C5.31758 25.302 3.36811 23.3525 3.36811 20.9561V3.49412L2.2842 4.5636C1.85705 4.98502 1.1691 4.98035 0.747676 4.5532C0.32625 4.12604 0.330918 3.4381 0.758073 3.01667L2.59359 1.20598C3.6497 0.164086 5.36809 0.164086 6.4242 1.20598L8.25971 3.01667C8.68687 3.4381 8.69154 4.12604 8.27011 4.5532C8.05749 4.76858 7.77717 4.87659 7.49665 4.87659C7.221 4.87659 6.94536 4.7724 6.73358 4.5636L5.54103 3.38696V20.9561C5.54103 22.1542 6.51587 23.1291 7.71394 23.1291H25.2598L24.0623 21.9465C23.6354 21.5248 23.6309 20.8369 24.0526 20.4099C24.4742 19.9832 25.1622 19.9788 25.5891 20.4004L27.4475 22.2357C27.4492 22.2374 27.4509 22.2389 27.4524 22.2406ZM24.9886 0.422119H10.919C10.3174 0.422119 9.83041 0.911024 9.83253 1.51261C9.83486 2.11101 10.3206 2.59503 10.919 2.59503H24.9886C25.5887 2.59503 26.0751 3.08139 26.0751 3.68149V17.8054C26.0751 18.4038 26.5591 18.8898 27.1575 18.8919C27.7591 18.894 28.248 18.407 28.248 17.8054V3.68149C28.248 1.88141 26.7887 0.422119 24.9886 0.422119ZM16.4056 19.0489C17.0057 19.0489 17.492 18.5625 17.492 17.9624V13.1269C17.492 11.4794 16.1518 10.1391 14.5043 10.1391C13.7826 10.1391 13.1199 10.3963 12.603 10.8239C12.0861 10.3963 11.4234 10.1391 10.7017 10.1391C10.2873 10.1391 9.89216 10.2242 9.53312 10.3774C9.3398 10.2004 9.08304 10.0916 8.8004 10.0916C8.2003 10.0916 7.71394 10.5779 7.71394 11.178V17.9684C7.71394 18.5685 8.2003 19.0548 8.8004 19.0548C9.40049 19.0548 9.88685 18.5685 9.88685 17.9684V13.1269C9.88685 12.6776 10.2525 12.312 10.7017 12.312C11.1509 12.312 11.5165 12.6776 11.5165 13.1269V17.9684C11.5165 18.5685 12.0029 19.0548 12.603 19.0548C13.2031 19.0548 13.6894 18.5685 13.6894 17.9684V13.1269C13.6894 12.6776 14.0551 12.312 14.5043 12.312C14.9535 12.312 15.3191 12.6776 15.3191 13.1269V17.9624C15.3191 18.5625 15.8055 19.0489 16.4056 19.0489ZM21.3354 6.28898C21.3297 6.28898 21.3241 6.28983 21.3184 6.28983C21.3129 6.28983 21.3074 6.28898 21.3016 6.28898C19.92 6.28898 18.7958 7.41448 18.7958 8.79781C18.7958 9.39769 19.2822 9.88426 19.8822 9.88426C20.4823 9.88426 20.9687 9.39769 20.9687 8.79781C20.9687 8.61574 21.1213 8.46189 21.3016 8.46189C21.3074 8.46189 21.3129 8.46105 21.3186 8.46105C21.3241 8.46105 21.3297 8.46189 21.3354 8.46189C21.5083 8.46189 21.6556 8.60322 21.6675 8.77531C21.646 8.85489 21.4795 9.34698 20.4384 10.4922C19.7927 11.2022 19.1582 11.7805 19.1521 11.786C18.8196 12.0877 18.7071 12.5631 18.8688 12.9817C19.0305 13.4006 19.4332 13.6769 19.8822 13.6769H22.8157C23.4158 13.6769 23.9021 13.1905 23.9021 12.5904C23.9021 11.9903 23.4158 11.504 22.8157 11.504H22.442C23.4067 10.3683 23.8412 9.5231 23.8412 8.79781C23.8412 7.41448 22.717 6.28898 21.3354 6.28898Z" fill="url(#paint0_linear)"/>
<defs>
<linearGradient id="paint0_linear" x1="0.434708" y1="14.3288" x2="28.248" y2="14.3288" gradientUnits="userSpaceOnUse">
<stop stop-color="#EF5830"/>
<stop offset="0.177083" stop-color="#FF4D4A"/>
<stop offset="0.2931" stop-color="#BF3A2B"/>
<stop offset="0.5538" stop-color="#994545"/>
<stop offset="0.7956" stop-color="#994559"/>
<stop offset="1" stop-color="#69333D"/>
</linearGradient>
</defs>
</svg>
