<?xml version="1.0" encoding="iso-8859-1"?>
<!-- Generator: Adobe Illustrator 19.0.0, SVG Export Plug-In . SVG Version: 6.00 Build 0)  -->
<svg version="1.1" id="Layer_1" xmlns="http://www.w3.org/2000/svg" xmlns:xlink="http://www.w3.org/1999/xlink" x="0px" y="0px"
	 viewBox="0 0 509.287 509.287" style="enable-background:new 0 0 509.287 509.287;" xml:space="preserve">
<circle style="fill:#4F5565;" cx="254.644" cy="254.644" r="254.644"/>
<path style="fill:#F0582F;" d="M438.76,99.009c0-15.597-12.546-28.482-28.482-28.482H99.009c-15.597,0-28.482,12.546-28.482,28.482
	v76.291H438.76V99.009z"/>
<path style="fill:#F1F3F7;" d="M70.527,175.301v235.317c0,15.597,12.546,28.482,28.482,28.482h311.608
	c15.597,0,28.482-12.546,28.482-28.482V175.301H70.527z"/>
<g>
	<circle style="fill:#D54232;" cx="168.858" cy="122.744" r="20.683"/>
	<circle style="fill:#D54232;" cx="340.429" cy="122.744" r="20.683"/>
</g>
<g>
	<path style="fill:#6EB1E1;" d="M242.776,268.885c0-29.838-24.074-53.913-53.913-53.913s-53.913,24.074-53.913,53.913
		c0,8.477,7.121,15.597,15.597,15.597s15.597-7.121,15.597-15.597c0-12.546,10.172-22.718,22.718-22.718
		s22.718,10.172,22.718,22.718s-10.172,22.718-22.718,22.718c-8.477,0-15.597,7.121-15.597,15.597
		c0,8.477,7.121,15.597,15.597,15.597c12.546,0,22.718,10.172,22.718,22.718s-10.172,22.718-22.718,22.718
		s-22.718-10.172-22.718-22.718c0-8.477-7.121-15.597-15.597-15.597s-15.597,7.121-15.597,15.597
		c0,29.838,24.074,53.913,53.913,53.913s53.913-24.074,53.913-53.913c0-14.919-6.103-28.482-15.936-38.315
		C236.673,297.367,242.776,283.804,242.776,268.885z"/>
	<path style="fill:#6EB1E1;" d="M360.095,245.489c-10.511-19.666-25.77-30.517-43.062-30.517c-16.954,0-32.212,10.85-43.062,30.517
		c-9.155,16.615-13.902,38.654-13.902,61.372c0,23.057,5.086,44.758,13.902,61.372c10.511,19.666,25.77,30.517,43.062,30.517
		c16.954,0,32.212-10.85,43.062-30.517c9.155-16.615,13.902-38.654,13.902-61.372C374.336,284.143,369.25,262.103,360.095,245.489z
		 M317.372,367.894c-10.172,0-25.77-24.413-25.77-61.033s15.597-61.033,25.77-61.033c10.172,0,25.77,24.413,25.77,61.033
		C343.142,343.82,327.544,367.894,317.372,367.894z"/>
</g>
<g>
</g>
<g>
</g>
<g>
</g>
<g>
</g>
<g>
</g>
<g>
</g>
<g>
</g>
<g>
</g>
<g>
</g>
<g>
</g>
<g>
</g>
<g>
</g>
<g>
</g>
<g>
</g>
<g>
</g>
</svg>
