<svg id="Layer_1" enable-background="new 0 0 512 512" height="512" viewBox="0 0 512 512" width="512" xmlns="http://www.w3.org/2000/svg"><path d="m502 195.289v-89.768c0-23.429-18.993-42.422-42.422-42.422h-271.958l-13.967-20.04c-5.464-7.839-14.415-12.511-23.97-12.511h-97.259c-23.43 0-42.424 18.994-42.424 42.424v122.317" fill="#fff3da"/><path d="m50.244 169.121s0-20.033.001-36.401c0-11.525 9.343-20.863 20.868-20.863h369.774c11.525 0 20.868 9.343 20.868 20.868v36.396z" fill="#ccf5fc"/><path d="m475.836 169.121c14.45 0 26.164 11.714 26.164 26.164v254.117c0 17.701-14.349 32.05-32.05 32.05h-427.902c-17.7 0-32.048-14.348-32.048-32.047v-254.116c0-14.452 11.716-26.168 26.168-26.168z" fill="#ffe6b4"/><path d="m179.219 312.299h153.561v103.656h-153.561z" fill="#fff3da"/><path d="m354.059 312.299h-196.118l98.059-95.705z" fill="#ff9c9b"/><path d="m230.827 362.918h50.345v53.037h-50.345z" fill="#ddb9a3"/><path d="m422.649 425.95c-4.133 0-7.882-2.62-9.35-6.473-1.504-3.945-.262-8.583 3.007-11.255 3.235-2.644 7.896-2.985 11.481-.842 3.588 2.145 5.476 6.434 4.663 10.53-.917 4.621-5.093 8.04-9.801 8.04z"/><path d="m459.578 53.1h-266.739l-10.982-15.758c-7.329-10.516-19.356-16.794-32.175-16.794h-97.258c-28.906 0-52.424 23.517-52.424 52.424v376.433c0 23.186 18.862 42.048 42.048 42.048h427.901c23.187 0 42.051-18.864 42.051-42.051v-343.88c0-28.906-23.517-52.422-52.422-52.422zm-407.154-12.552h97.258c6.281 0 12.175 3.076 15.767 8.229l13.967 20.04c1.87 2.683 4.934 4.282 8.204 4.282h271.959c17.877.001 32.421 14.545 32.421 32.422v57.417c-4.867-2.442-10.358-3.818-16.164-3.818h-4.08v-26.395c0-17.021-13.848-30.868-30.868-30.868h-369.775c-17.019 0-30.867 13.845-30.868 30.863l-.001 26.4h-4.076c-5.808 0-11.3 1.377-16.168 3.819v-89.967c0-17.879 14.545-32.424 32.424-32.424zm399.332 118.573h-391.512l.001-26.399c.001-5.99 4.876-10.864 10.868-10.864h369.774c5.993 0 10.868 4.875 10.868 10.868v26.395zm40.244 290.28c0 12.159-9.892 22.051-22.051 22.051h-427.901c-12.157 0-22.048-9.891-22.048-22.048v-254.115c0-8.915 7.253-16.168 16.168-16.168h439.668c8.913 0 16.164 7.251 16.164 16.164z"/><path d="m377.627 405.955h-34.847v-83.656h11.279c4.066 0 7.728-2.463 9.262-6.229s.633-8.087-2.277-10.927l-98.06-95.705c-3.885-3.791-10.084-3.791-13.969 0l-98.059 95.705c-2.91 2.84-3.811 7.16-2.277 10.927s5.195 6.229 9.262 6.229h11.279v83.656h-99.87c-5.523 0-10 4.477-10 10 0 5.522 4.477 10 10 10h308.277c5.522 0 10-4.478 10-10s-4.478-10-10-10zm-121.627-175.388 73.496 71.731h-146.992zm-15.173 175.388v-33.037h30.346v33.037zm50.346 0v-43.037c0-5.522-4.478-10-10-10h-50.346c-5.522 0-10 4.478-10 10v43.037h-31.607v-83.656h133.56v83.656z"/></svg>