<?xml version="1.0" encoding="iso-8859-1"?>
<!-- Generator: Adobe Illustrator 19.0.0, SVG Export Plug-In . SVG Version: 6.00 Build 0)  -->
<svg version="1.1" id="Capa_1" xmlns="http://www.w3.org/2000/svg" xmlns:xlink="http://www.w3.org/1999/xlink" x="0px" y="0px"
	 viewBox="0 0 512 512" style="enable-background:new 0 0 512 512;" xml:space="preserve">
<path style="fill:#EF5830;" d="M256,0C154.535,0,71.987,82.548,71.987,184.013c0,32.171,9.494,69.412,28.217,110.688
	c14.801,32.63,35.401,67.927,61.231,104.908c43.848,62.782,88.339,109.493,88.783,109.957c3.106,3.246,8.457,3.246,11.564,0
	c0.444-0.464,44.936-47.174,88.783-109.957c25.829-36.982,46.43-72.278,61.231-104.908c18.723-41.276,28.217-78.517,28.217-110.688
	C440.013,82.548,357.465,0,256,0z"/>
<path style="fill:#BF3A2B;" d="M193.437,383.643c-25.829-36.982-46.43-72.278-61.231-104.908
	c-18.723-41.276-28.217-78.517-28.217-110.688c0-65.682,34.597-123.425,86.519-155.992
	C121.285,38.509,71.987,105.606,71.987,184.013c0,32.171,9.494,69.412,28.217,110.688c14.801,32.63,35.401,67.927,61.231,104.908
	c43.848,62.782,88.339,109.493,88.783,109.957c3.106,3.246,8.457,3.246,11.564,0c0.17-0.178,6.812-7.151,17.401-19.21
	C268.417,478.732,230.698,436.994,193.437,383.643z"/>
<path style="fill:#FF704A;" d="M256,48.003c-74.995,0-136.01,61.013-136.01,136.01s61.014,136.01,136.01,136.01
	s136.01-61.013,136.01-136.01S330.995,48.003,256,48.003z"/>
<path style="fill:#FFFFFF;" d="M352.345,157.232c-1.071-3.296-4.143-5.528-7.609-5.528h-61.975l-19.151-58.942
	c-1.071-3.296-4.143-5.528-7.609-5.528c-3.466,0-6.537,2.231-7.609,5.528l-19.151,58.942h-61.975c-3.466,0-6.537,2.232-7.609,5.528
	c-1.071,3.296,0.103,6.907,2.906,8.945l50.14,36.428l-19.151,58.942c-1.071,3.296,0.103,6.908,2.906,8.945
	c2.805,2.037,6.602,2.037,9.405,0l50.14-36.428l50.14,36.428c2.99,2.173,7.202,1.975,9.98-0.461
	c2.377-2.085,3.309-5.476,2.332-8.485l-19.151-58.942l50.14-36.428C352.243,164.14,353.416,160.528,352.345,157.232z"/>
<g>
</g>
<g>
</g>
<g>
</g>
<g>
</g>
<g>
</g>
<g>
</g>
<g>
</g>
<g>
</g>
<g>
</g>
<g>
</g>
<g>
</g>
<g>
</g>
<g>
</g>
<g>
</g>
<g>
</g>
</svg>
