<svg height="511pt" viewBox="-79 1 511 511.99932" width="511pt" xmlns="http://www.w3.org/2000/svg"><path d="m256.5 96c0 44.183594-35.816406 80-80 80s-80-35.816406-80-80 35.816406-80 80-80 80 35.816406 80 80zm0 0" fill="#ff7956"/><path d="m16.5 368v128h320v-128c0-88.367188-71.632812-160-160-160s-160 71.632812-160 160zm0 0" fill="#ff7956"/><g fill="#3e3d42"><path d="m272.5 96c0-53.019531-42.980469-96-96-96s-96 42.980469-96 96 42.980469 96 96 96c52.996094-.054688 95.945312-43.003906 96-96zm-96 64c-35.347656 0-64-28.652344-64-64s28.652344-64 64-64 64 28.652344 64 64-28.652344 64-64 64zm0 0"/><path d="m176.5 192c-97.15625.113281-175.886719 78.84375-176 176v128c0 8.835938 7.164062 16 16 16h320c8.835938 0 16-7.164062 16-16v-128c-.117188-97.15625-78.847656-175.886719-176-176zm144 288h-288v-112c0-79.527344 64.46875-144 144-144 79.527344 0 144 64.472656 144 144zm0 0"/></g></svg>